<svg width="28" height="27" viewBox="0 0 28 27" fill="none" xmlns="http://www.w3.org/2000/svg">
<g clip-path="url(#clip0_1_90)">
<path d="M14.008 27C6.36081 27.0346 0.0286751 20.9752 1.28287e-06 13.5968C-0.029469 6.09466 6.19116 0.0483948 13.9889 -6.04929e-06C21.636 -0.0468704 27.9745 6.04472 28 13.4662C28.0247 20.9192 21.7746 26.9647 14.008 27ZM12.7296 14.9282C12.6125 14.7715 12.5599 14.6762 12.4843 14.6032C11.6081 13.7535 10.7272 12.9092 9.85106 12.0595C9.48308 11.703 9.04978 11.5624 8.54719 11.6999C7.59379 11.9604 7.31263 13.069 8.02788 13.7666C9.23696 14.9451 10.458 16.1136 11.6734 17.286C12.3927 17.9798 13.0681 17.979 13.7889 17.2837C15.3357 15.7925 16.8809 14.3013 18.4277 12.8101C18.9335 12.3222 19.4409 11.8352 19.945 11.3458C20.313 10.9878 20.4349 10.5591 20.2796 10.0789C19.9865 9.17004 18.8475 8.93802 18.1179 9.63945C16.3998 11.2897 14.6866 12.9453 12.9741 14.6017C12.8969 14.6747 12.8443 14.7715 12.7296 14.9282Z" fill="#2AE85F"/>
</g>
<defs>
<clipPath id="clip0_1_90">
<rect width="28" height="27" fill="white"/>
</clipPath>
</defs>
</svg>
