<svg width="132" height="132" viewBox="0 0 132 132" fill="none" xmlns="http://www.w3.org/2000/svg">
<circle cx="66" cy="66" r="66" fill="url(#paint0_linear_20_206)"/>
<g clip-path="url(#clip0_20_206)">
<path d="M48.4938 100.872C45.7494 99.111 43.943 96.7499 43.0072 93.7496C42.7525 92.9325 42.5436 92.1026 42.3477 91.2705C42.2084 90.6743 41.9364 90.2239 41.2965 90.0824C40.6327 89.9365 40.1452 90.2003 39.7578 90.73C39.2703 91.3991 38.7589 92.0532 38.2126 92.7717C36.7958 90.8394 35.9339 88.7785 35.6858 86.5116C35.5531 85.2999 35.6619 84.0625 35.6423 82.8358C35.6358 82.4133 35.6575 81.9651 35.5226 81.577C35.096 80.3567 34.3386 80.1551 33.3092 80.925C32.6628 81.4075 32.0165 81.8858 31.307 82.4133C30.5148 79.6018 30.6149 76.8953 31.5094 74.2168C31.7618 73.4597 32.2102 72.7606 32.43 71.9971C32.591 71.4374 32.6585 70.7897 32.5344 70.23C32.369 69.4794 31.7444 69.2006 30.9631 69.3335C30.3494 69.4365 29.74 69.563 29 69.7046C29.0762 69.1684 29.1132 68.6794 29.2155 68.2033C29.8597 65.2095 31.3461 62.6939 33.59 60.5729C34.0579 60.129 34.3974 59.4449 34.5498 58.8122C34.7304 58.0659 34.3169 57.697 33.516 57.6284C32.628 57.5534 31.7379 57.4976 30.7172 57.4247C30.8673 57.1094 30.9696 56.8499 31.1067 56.6097C32.7325 53.7574 35.0939 51.7222 38.1408 50.4248C38.6435 50.2103 39.1724 49.8886 39.4945 49.4726C40.204 48.5547 39.9385 47.6411 38.9177 47.0771C38.2822 46.7254 37.6446 46.3758 36.7065 45.859C37.0374 45.681 37.2789 45.5995 37.4596 45.4493C40.0734 43.2919 43.0811 42.2046 46.4872 42.0545C47.1292 42.0266 47.83 41.6942 48.3632 41.3103C48.9095 40.92 48.9117 40.3066 48.3719 39.7855C47.7147 39.1507 47.0704 38.503 46.3522 37.7953C47.8735 37.0833 49.4188 36.7531 51.0119 36.6416C52.9554 36.5043 54.8423 36.7874 56.7074 37.3664C57.2842 37.5444 58.0067 37.5401 58.5856 37.3664C59.4888 37.0941 59.7565 36.3306 59.4518 35.432C59.2124 34.7243 58.96 34.0187 58.7162 33.311C58.7097 33.2939 58.738 33.2638 58.7815 33.0022C60.2092 33.2167 61.6587 33.3432 63.0581 33.6692C65.0647 34.1345 66.8363 35.121 68.4294 36.4164C68.7188 36.6523 69.0322 36.8903 69.3761 37.0233C70.6232 37.5015 71.435 36.8968 71.361 35.5714C71.3174 34.7758 71.2522 33.9823 71.1912 33.1008C74.6299 34.2203 77.2285 36.2405 79.098 39.1872C79.2699 39.4595 79.4157 39.7512 79.6073 40.0085C80.0817 40.6476 80.7346 40.8878 81.5312 40.8128C82.2842 40.742 82.5562 40.2251 82.7717 39.6097C82.9981 38.962 83.2701 38.3293 83.5226 37.6903C83.6183 37.6281 83.7119 37.5659 83.8077 37.5037C84.404 38.1835 85.0134 38.8526 85.5966 39.5453C87.3007 41.5634 88.3585 43.8731 88.7959 46.4659C88.8656 46.8733 89.0135 47.3066 89.2508 47.6432C89.9907 48.6919 90.7938 48.6834 91.5556 47.6733C92.0082 47.0728 92.4631 46.4723 92.9223 45.8761C92.9506 45.8397 93.0137 45.8289 93.1182 45.7775C94.3152 47.729 95.0291 49.8436 95.1118 52.1147C95.1596 53.4143 94.9812 54.7247 94.8528 56.0243C94.7744 56.8049 94.8419 57.5233 95.3664 58.1388C95.9105 58.7801 96.6461 58.8573 97.3034 58.3233C97.9497 57.8 98.5635 57.2381 99.3535 56.554C99.5363 57.5748 99.7605 58.4391 99.8367 59.3183C100.065 61.9283 99.5973 64.4182 98.4764 66.8094C98.224 67.3477 98.1304 68.0532 98.2327 68.6366C98.385 69.503 98.9531 69.7496 99.8171 69.5244C100.496 69.3464 101.166 69.132 102.002 68.8875C101.845 69.5673 101.741 70.1549 101.573 70.7232C100.749 73.5241 99.1772 75.8381 96.9268 77.7403C96.4415 78.1499 96.0237 78.7504 95.8234 79.3444C95.5514 80.153 96.0411 80.6784 96.9094 80.6955C97.8714 80.7148 98.8355 80.6998 99.9498 80.6998C98.7463 82.8272 97.2968 84.5065 95.51 85.8768C94.5524 86.6124 93.4729 87.1958 92.4631 87.8649C92.1084 88.1008 91.7231 88.341 91.4729 88.6691C90.7198 89.6556 90.9658 90.3762 92.1388 90.7965C92.8527 91.0517 93.5665 91.3026 94.2804 91.56C94.3217 91.575 94.3522 91.6222 94.448 91.7058C92.9289 93.0462 91.2269 94.0949 89.3204 94.7168C87.8949 95.18 86.3823 95.4116 84.8937 95.6497C84.1102 95.7762 83.4769 96.025 83.1069 96.7263C82.7674 97.3739 82.7434 97.998 83.3615 98.5427C83.9426 99.0553 84.4976 99.5979 85.0656 100.125C85.0438 100.239 85.0221 100.353 85.0003 100.466C83.4224 100.754 81.8555 101.133 80.2645 101.305C78.3645 101.511 76.4755 101.292 74.6364 100.719C74.2142 100.589 73.7158 100.533 73.2871 100.617C72.0052 100.867 71.7048 101.579 72.3316 102.692C72.7234 103.387 73.1108 104.082 73.5504 104.863C70.1553 105.33 67.1366 104.64 64.3879 102.843C63.674 102.375 63.1125 101.689 62.4269 101.174C62.0548 100.895 61.3649 100.484 61.1755 100.621C60.7533 100.921 60.355 101.511 60.3093 102.013C60.2223 102.956 60.3942 103.921 60.4617 104.955C60.194 104.908 59.9611 104.895 59.7457 104.824C55.9849 103.589 53.025 101.408 51.2665 97.8157C51.1838 97.6484 51.1185 97.4426 50.9814 97.3353C50.7246 97.138 50.3981 96.8421 50.1435 96.8807C49.8823 96.9193 49.5602 97.2667 49.4623 97.5476C49.1576 98.4312 48.9465 99.3448 48.6962 100.248C48.6461 100.424 48.5808 100.597 48.4938 100.872ZM52.4526 69.0783C52.4417 76.1211 58.2744 81.8772 65.4565 81.9094C72.595 81.9394 78.506 76.1512 78.5169 69.1255C78.5278 62.0398 72.7125 56.2323 65.5892 56.2194C58.3092 56.2023 52.4635 61.9219 52.4526 69.0783ZM43.203 58.2911C43.4011 58.1045 43.8821 57.8193 44.1149 57.3989C45.8386 54.3 48.1129 51.6879 50.9857 49.5734C51.8041 48.9707 51.9521 48.2073 51.4341 47.5811C50.9313 46.9741 50.174 46.9077 49.4275 47.5553C47.9432 48.8421 46.3892 50.0838 45.1074 51.5507C43.8429 52.9961 42.833 54.6689 41.7993 56.2966C41.1986 57.2402 41.8384 58.3168 43.203 58.2911ZM54.5702 47.4138C55.4517 47.032 56.5877 46.6139 57.6476 46.0541C58.1525 45.7882 58.2461 45.1856 57.9937 44.6301C57.7303 44.0532 57.2232 43.6972 56.6291 43.8859C55.5583 44.2291 54.5071 44.6601 53.5038 45.1663C52.9924 45.4236 52.8487 45.9898 53.0642 46.5688C53.2753 47.1328 53.6975 47.4052 54.5702 47.4138Z" fill="white"/>
<path d="M65.4891 58.7864C71.2043 58.7757 75.9183 63.4144 75.9118 69.0482C75.9053 74.7185 71.2413 79.3358 65.5174 79.3358C59.7261 79.3358 55.0534 74.7356 55.0577 69.0353C55.0621 63.3865 59.7326 58.7971 65.4891 58.7864ZM65.5414 62.6402C61.9307 62.6209 58.9839 65.4839 58.9687 69.0246C58.9535 72.546 61.8372 75.4498 65.3847 75.4841C69.0323 75.5184 71.9943 72.6425 72.0008 69.0568C72.0052 65.5483 69.0975 62.6595 65.5414 62.6402Z" fill="white"/>
<path d="M69.3913 69.0611C69.3826 71.1971 67.6045 72.9299 65.4434 72.9084C63.3171 72.887 61.5782 71.1563 61.5803 69.0589C61.5825 66.9294 63.3563 65.1987 65.5283 65.2094C67.6394 65.2223 69.3979 66.9765 69.3913 69.0611Z" fill="white"/>
</g>
<defs>
<linearGradient id="paint0_linear_20_206" x1="-49" y1="-49" x2="158" y2="262" gradientUnits="userSpaceOnUse">
<stop stop-color="#2AE85F"/>
<stop offset="0.36462" stop-color="#2AE85F"/>
<stop offset="1" stop-color="#3646D9"/>
</linearGradient>
<clipPath id="clip0_20_206">
<rect width="73" height="72" fill="white" transform="translate(29 33)"/>
</clipPath>
</defs>
</svg>
