<svg width="132" height="132" viewBox="0 0 132 132" fill="none" xmlns="http://www.w3.org/2000/svg">
<circle cx="66" cy="66" r="66" fill="url(#paint0_linear_17_205)"/>
<g clip-path="url(#clip0_17_205)">
<path d="M90.2843 73.8331C93.0897 76.4246 92.0038 80.7332 88.4313 81.6973C88.68 82.3386 89.0508 82.9648 89.1604 83.6337C89.5692 86.1493 87.7177 88.1712 85.0569 88.174C78.238 88.1809 71.4176 88.1781 64.5986 88.1726C64.003 88.1726 63.4017 88.1781 62.8159 88.0926C61.8129 87.9478 60.8225 87.723 59.8222 87.5534C59.4471 87.4899 59.4738 87.2472 59.4738 86.9824C59.4766 84.246 59.4752 81.5097 59.4752 78.7748C59.4752 73.7669 59.4696 68.7604 59.4893 63.7526C59.4907 63.4629 59.6649 63.1554 59.8166 62.8878C60.2226 62.1706 60.7536 61.5072 61.0669 60.7556C62.4282 57.48 63.7332 54.1809 65.0453 50.8847C65.1507 50.6212 65.1999 50.3206 65.2027 50.0365C65.2167 48.2642 65.2097 46.4919 65.2097 44.7197C65.2097 42.1061 67.404 40.4662 69.9762 41.1599C70.968 41.4275 71.7955 41.9516 72.4656 42.7143C75.5815 46.2616 76.43 50.3261 75.2457 54.8112C74.9985 55.7463 74.5026 56.6194 74.1134 57.5172C74.0418 57.6841 73.9392 57.84 73.8142 58.0703C74.1078 58.0703 74.3129 58.0703 74.5194 58.0703C79.4812 58.0703 84.4416 58.0634 89.4034 58.073C91.9827 58.0772 93.9831 59.9267 93.9986 62.343C94.0098 64.0022 93.2583 65.2821 91.8225 66.1662C91.6778 66.2558 91.5275 66.3358 91.3716 66.4255C93.8033 68.8294 93.1094 72.3532 90.2843 73.8331Z" fill="white"/>
<path d="M45.0014 76.1019C45.0014 72.1105 45 68.1205 45.0014 64.1291C45.0014 62.2934 46.0662 61.2397 47.922 61.2383C50.3411 61.2369 52.7588 61.2355 55.1779 61.2383C56.9002 61.241 58.017 62.3168 58.0184 64.005C58.024 72.0719 58.024 80.1402 58.0184 88.2071C58.017 89.9228 56.9016 90.9944 55.1442 90.9958C52.7082 90.9986 50.2723 90.9986 47.8363 90.9958C46.1168 90.9944 45.0028 89.9118 45.0014 88.2278C44.9972 84.1867 45.0014 80.1443 45.0014 76.1019Z" fill="white"/>
</g>
<defs>
<linearGradient id="paint0_linear_17_205" x1="-49" y1="-49" x2="158" y2="262" gradientUnits="userSpaceOnUse">
<stop stop-color="#2AE85F"/>
<stop offset="0.330009" stop-color="#2AE85F"/>
<stop offset="1" stop-color="#3646D9"/>
</linearGradient>
<clipPath id="clip0_17_205">
<rect width="49" height="50" fill="white" transform="translate(45 41)"/>
</clipPath>
</defs>
</svg>
